<svg width="512.0054" height="512" xmlns="http://www.w3.org/2000/svg">

 <g>
  <title>background</title>
  <rect fill="none" id="canvas_background" height="602" width="802" y="-1" x="-1"/>
 </g>
 <g>
  <title>Layer 1</title>
  <path fill="#7510f7" id="svg_1" d="m48,320.00391l16,0l0,144l-16,0l0,-144zm0,0"/>
  <path fill="#7510f7" id="svg_2" d="m80,320.00391l16,0l0,144l-16,0l0,-144zm0,0"/>
  <path fill="#7510f7" id="svg_3" d="m112,320.00391l16,0l0,144l-16,0l0,-144zm0,0"/>
  <path fill="#7510f7" id="svg_4" d="m144,432.00391l16,0l0,32l-16,0l0,-32zm0,0"/>
  <path fill="#7510f7" id="svg_5" d="m176,432.00391l16,0l0,32l-16,0l0,-32zm0,0"/>
  <path fill="#7510f7" id="svg_6" d="m482.82422,375.20313l-23.80078,-21.7461c0.19922,-3.04687 0.30469,-6.05469 0.30469,-9c0,-2.9414 -0.10547,-5.94922 -0.30469,-8.99219l28.65625,-26.1914l-10.73438,-32.94922l-38.54687,-4.32031c-3.19922,-5.0625 -6.72656,-9.91016 -10.5586,-14.51172l7.78516,-38l-28.05078,-20.44141l-33.75,19.11328c-5.57422,-2.24609 -11.28906,-4.11718 -17.11328,-5.60156l-16.19922,-35.70312l-34.34375,0l-16.19922,35.70312c-5.82422,1.48438 -11.53906,3.35547 -17.11328,5.60156l-8.85547,-5.00781l0,-213.15234l-264,0l0,512l264,0l0,-36.25l8.86328,-5.02344c5.57031,2.24609 11.28516,4.11719 17.10547,5.60156l16.19922,35.67188l34.32812,0l16.19922,-35.70703c5.82422,-1.48438 11.53907,-3.35547 17.11328,-5.59766l27.47266,15.55859c23.26953,17.83203 55.29297,18.9336 79.73438,2.7461l9.60156,-6.33594l-44.5625,-32.63281l19.38672,-26.46485l43.52734,31.88672l2.12109,-12.83984c4.29297,-26.03906 -6.68359,-52.23828 -28.25781,-67.4375l-0.00781,0.02344zm-210.96094,-139.19922l3.66406,-1.60157c7.03125,-3.0625 14.34375,-5.4414 21.83204,-7.10546l3.90625,-0.86329l15.19921,-33.52734l13.6875,0l15.19922,33.52734l3.90625,0.86329c7.48828,1.66406 14.79688,4.04296 21.83203,7.10546l3.66407,1.60157l32.3164,-18.29688c3.73828,2.48828 7.38672,5.14453 10.89844,7.94531l-7.46484,36.39844l2.64843,2.99219c5.08594,5.74219 9.61328,11.96094 13.51172,18.56641l2.03125,3.43359l36.9375,4.12109c1.59766,4.1836 2.96094,8.44532 4.15235,12.75l-27.38672,25.06641l0.38672,4c0.36718,3.90234 0.55078,7.77344 0.55078,11.50391c0,3.72656 -0.1836,7.59765 -0.55078,11.5039l-0.38672,4l2.89062,2.64453c-0.80078,0 -1.51172,-0.11718 -2.28906,-0.11718c-9.82031,0 -19.52734,2.09375 -28.47266,6.14453l-20,-13.84766c4.08594,-27.05859 -7.59375,-54.07812 -30.10156,-69.63672c-22.5039,-15.5625 -51.90625,-16.94922 -75.77734,-3.57422l-17.87891,-12.35937c2.28906,-11.80078 1.375,-24 -2.64062,-35.32813l3.73437,2.08985zm107.46485,108.2539l-75.46485,-52.16797c17.13281,-6.51953 36.375,-4.1875 51.45313,6.23438c15.07812,10.42578 24.05859,27.60547 24.01172,45.93359zm-363.32813,-328.2539l232,0l0,48l-152,0l0,-16l-80,0l0,-32zm0,48l64,0l0,16l-64,0l0,-16zm0,32l80,0l0,-16l152,0l0,64l-152,0l0,-16l-80,0l0,-32zm0,48l64,0l0,16l-64,0l0,-16zm232,352l-232,0l0,-320l80,0l0,-16l152,0l0,44.08593l-0.48828,-0.26953c-23.34375,-19.83984 -56.99219,-21.85547 -82.53516,-4.94531l-9.60156,6.33594l44.5625,32.63281l-19.38672,26.46484l-43.51172,-31.89062l-2.11718,12.83984c-4.26563,25.79688 6.47656,51.77735 27.71093,67.03125l-0.15234,0.17578l25.15234,22.99219c-0.1914,3.01953 -0.29687,6.02735 -0.29687,8.99219c0,2.96875 0.10547,5.98437 0.29687,8.99219l-28.65625,26.1914l1.12891,4.60157c1.99609,8.18359 4.60547,16.20703 7.80469,24l1.80859,4.375l38.5625,4.29687c3.19922,5.0625 6.72656,9.91016 10.55859,14.51172l-7.78515,38l3.60937,3.07422c6.42969,5.45312 13.25391,10.42578 20.41407,14.87109l4,2.4961l8.92187,-5.0586l0,11.20313zm126.80078,-43.09766l-3.66406,1.60156c-7.03125,3.06641 -14.34375,5.44532 -21.83203,7.10157l-3.90625,0.875l-15.22266,33.51953l-13.6875,0l-15.19922,-33.51953l-3.92968,-0.88282c-7.48829,-1.65625 -14.79688,-4.03515 -21.82422,-7.10156l-3.66407,-1.60156l-32.32031,18.30469c-3.73047,-2.48047 -7.36719,-5.12891 -10.90234,-7.94532l7.46484,-36.39843l-2.64844,-2.99219c-5.08593,-5.74219 -9.60937,-11.95703 -13.51171,-18.5586l-2.03125,-3.4414l-36.9375,-4.1211c-1.60157,-4.17578 -2.95313,-8.4375 -4.15235,-12.75l27.4336,-25.07421l-0.38672,-4c-0.35938,-3.84766 -0.54297,-7.71875 -0.54297,-11.50391c0,-3.78516 0.18359,-7.64844 0.54297,-11.50391l0.38672,-4l-4,-3.66406c0.91015,0 1.8125,0.13672 2.74218,0.13672c9.64453,-0.00391 19.1836,-2.02735 28,-5.9375l21.1836,14.64844c-0.50782,3.40625 -0.77735,6.84375 -0.80078,10.28906c-0.10938,25.49219 13.32421,49.125 35.28515,62.07031c21.96485,12.94531 49.14844,13.25391 71.39453,0.8086l17.13672,11.83984c-0.53906,3.01172 -0.875,6.05859 -1,9.11328c-0.08594,1.12109 -0.15234,2.19922 -0.15234,3.19922c0,2.22656 0.1289,4.42578 0.33594,6.60156c0.05859,0.64844 0.16796,1.26953 0.25,1.90235c0.17968,1.57031 0.41406,3.12109 0.70312,4.65625c0.12891,0.64062 0.28125,1.27343 0.42578,1.91406c0.33985,1.5625 0.73438,3.10156 1.1836,4.61328c0.16015,0.51172 0.3125,1.02344 0.48046,1.52734c0.21485,0.69141 0.39063,1.38672 0.62891,2.0586l-3.26172,-1.78516zm-107.45703,-108.25391l75.45703,52.14844c-17.1289,6.52344 -36.37109,4.19141 -51.44922,-6.23047c-15.07812,-10.42187 -24.05468,-27.59765 -24.00781,-45.92578l0,0.00781zm194.63281,56.58204l-38.28906,52.27343l37.74609,27.64844c-17.51953,6.48828 -37.16015,3.26172 -51.67968,-8.48828c-1.06641,-0.85547 -2.0586,-1.76953 -3.04297,-2.6875c-0.61328,-0.58594 -1.23047,-1.16797 -1.82422,-1.78516c-1,-1.03906 -1.97656,-2.09765 -2.87891,-3.19922c-0.64062,-0.80078 -1.22265,-1.60156 -1.8164,-2.40234c-0.47266,-0.64844 -0.96094,-1.29688 -1.40625,-1.96875c-0.57813,-0.87109 -1.10547,-1.77344 -1.60157,-2.6875c-0.39843,-0.67969 -0.80078,-1.35938 -1.15234,-2.0625c-0.47266,-0.90625 -0.91016,-1.83203 -1.33594,-2.76953c-0.34375,-0.79688 -0.66406,-1.54297 -0.97656,-2.33594c-0.3125,-0.78906 -0.69531,-1.80078 -1,-2.72656c-0.30469,-0.92969 -0.55078,-1.84766 -0.79688,-2.77735c-0.25,-0.92578 -0.46484,-1.67187 -0.64843,-2.51953c-0.25,-1.15234 -0.42578,-2.32812 -0.60157,-3.49609c-0.09765,-0.67969 -0.23046,-1.35156 -0.3125,-2.03906c-0.20703,-1.90625 -0.3125,-3.82032 -0.32031,-5.73438c0,-1.14453 0.16016,-2.3125 0.24219,-3.47265c0.26953,-2.54688 0.72656,-5.48828 1.16797,-8c0.17578,-0.75391 0.2539,-1.50391 0.45312,-2.25782l1.46485,-5.4375l-161.15235,-111.38671l-4.30468,2.29687c-15.55469,8.28516 -34.21485,8.28906 -49.77735,0.01563c-15.5625,-8.27735 -25.98828,-23.75 -27.82031,-41.28125l33.6875,24.71484l38.3125,-52.26563l-37.74609,-27.64062c18.65625,-6.98828 39.66015,-2.90235 54.33203,10.57812c14.66797,13.47657 20.51953,34.0586 15.13281,53.23829l-1.51953,5.47265l160.84766,111.15235l4.32812,-2.40235c15.56641,-8.44922 34.32031,-8.5664 49.99609,-0.32031c15.67188,8.25 26.19141,23.78125 28.03516,41.39453l-33.74219,-24.64062zm0,0"/>
 </g>
</svg>