<svg width="971.44" height="501.99999999999994" xmlns="http://www.w3.org/2000/svg" xmlns:xlink="http://www.w3.org/1999/xlink">
 <defs>
  <linearGradient y2="0" x2="0.5" y1="0.99998" x1="0.5" id="341b0e5e-a21f-44db-b85f-76180f33f0d3">
   <stop stop-opacity="0.25" stop-color="gray" offset="0"/>
   <stop stop-opacity="0.12" stop-color="gray" offset="0.54"/>
   <stop stop-opacity="0.1" stop-color="gray" offset="1"/>
  </linearGradient>
  <linearGradient xlink:href="#341b0e5e-a21f-44db-b85f-76180f33f0d3" y2="71.12" x2="485.72" y1="258.88" x1="485.72" id="9c19d1ba-0c1d-4cca-8c15-e6f3831a5e67"/>
  <linearGradient xlink:href="#341b0e5e-a21f-44db-b85f-76180f33f0d3" y2="515" x2="303" y1="515" x1="132" id="fe76f7c7-2126-4e48-920d-21143a22d340"/>
  <linearGradient xlink:href="#341b0e5e-a21f-44db-b85f-76180f33f0d3" y2="568.28" x2="1031" y1="568.28" x1="933" id="2cf89a04-5a05-413b-983a-d2bc296cbb5e"/>
 </defs>
 <title>responsive</title>
 <g>
  <title>background</title>
  <rect fill="none" id="canvas_background" height="602" width="802" y="-1" x="-1"/>
 </g>
 <g>
  <title>Layer 1</title>
  <g id="svg_1" opacity="0.7">
   <path id="svg_2" fill="url(#341b0e5e-a21f-44db-b85f-76180f33f0d3)" d="m738.41,0l-506.38,0a16.37,16.37 0 0 0 -16.31,16.42l0,348.52a16.37,16.37 0 0 0 16.31,16.42l174.16,0l0,60.16l-7.94,0a8.3,8.3 0 0 0 -8.27,8.33l0,12.07l16.21,0l0,7.14l158.06,0l0,-7.14l16.21,0l0,-12.07a8.3,8.3 0 0 0 -8.27,-8.33l-7.47,0l0,-0.52l-0.51,0l0,-59.64l174.2,0a16.37,16.37 0 0 0 16.31,-16.42l0,-348.52a16.37,16.37 0 0 0 -16.31,-16.42z"/>
  </g>
  <rect id="svg_3" fill="#7510f7" height="92" width="156" y="371" x="407.72"/>
  <g id="svg_4" opacity="0.1">
   <path id="svg_5" d="m410.79,380l150.17,0c1.81,-7.87 3.26,-13 3.26,-13l-157,0s1.61,5.11 3.57,13z"/>
  </g>
  <path id="svg_6" fill="#535461" d="m235.82,3l499.8,0a16.1,16.1 0 0 1 16.1,16.1l0,307.9a0,0 0 0 1 0,0l-532,0a0,0 0 0 1 0,0l0,-307.9a16.1,16.1 0 0 1 16.1,-16.1z"/>
  <path id="svg_7" fill="#7510f7" d="m735.62,377l-499.8,0a16.1,16.1 0 0 1 -16.1,-16.1l0,-33.9l532,0l0,33.9a16.1,16.1 0 0 1 -16.1,16.1z"/>
  <circle id="svg_8" fill="#ffffff" r="9" cy="352" cx="485.72"/>
  <path id="svg_9" fill="#6c63ff" d="m399.89,436l171.66,0a8.17,8.17 0 0 1 8.17,8.17l0,11.83a0,0 0 0 1 0,0l-188,0a0,0 0 0 1 0,0l0,-11.83a8.17,8.17 0 0 1 8.17,-8.17z"/>
  <g id="svg_10" opacity="0.5">
   <rect id="svg_11" fill="url(#9c19d1ba-0c1d-4cca-8c15-e6f3831a5e67)" ry="4.5" rx="4.5" height="187.76" width="330" y="71.12" x="320.72"/>
  </g>
  <rect id="svg_12" fill="#fff" ry="4.5" rx="4.5" height="183.96" width="321.54" y="72.5" x="324.95"/>
  <g id="svg_13" opacity="0.5">
   <rect id="svg_14" fill="#6c63ff" ry="4.5" rx="4.5" height="31.9" width="35.44" y="98.91" x="414.52"/>
  </g>
  <rect id="svg_15" fill="#e0e0e0" ry="1.77" rx="1.77" height="3.54" width="95.69" y="98.91" x="460.59"/>
  <rect id="svg_16" fill="#e0e0e0" ry="1.77" rx="1.77" height="3.54" width="79.54" y="109.55" x="460.59"/>
  <g id="svg_17" opacity="0.5">
   <rect id="svg_18" fill="#6c63ff" ry="4.5" rx="4.5" height="31.9" width="35.44" y="148.53" x="414.52"/>
  </g>
  <rect id="svg_19" fill="#e0e0e0" ry="1.77" rx="1.77" height="3.54" width="95.69" y="148.53" x="460.59"/>
  <rect id="svg_20" fill="#e0e0e0" ry="1.77" rx="1.77" height="3.54" width="95.69" y="159.16" x="460.59"/>
  <g id="svg_21" opacity="0.5">
   <rect id="svg_22" fill="#6c63ff" ry="4.5" rx="4.5" height="31.9" width="35.44" y="198.15" x="414.52"/>
  </g>
  <rect id="svg_23" fill="#e0e0e0" ry="1.77" rx="1.77" height="3.54" width="95.69" y="198.15" x="460.59"/>
  <rect id="svg_24" fill="#e0e0e0" ry="1.59" rx="1.59" height="3.54" width="96.33" y="208.78" x="460.59"/>
  <line id="svg_25" stroke-width="2" stroke-miterlimit="10" stroke="#6c63ff" y2="20" x2="485.72" y1="42" x1="485.72"/>
  <line id="svg_26" stroke-width="2" stroke-miterlimit="10" stroke="#6c63ff" y2="50.13" x2="485.72" y1="79" x1="485.72"/>
  <circle id="svg_27" fill="#6c63ff" r="4" cy="79" cx="485.72"/>
  <circle id="svg_28" stroke-miterlimit="10" stroke="#fff" fill="none" r="4" cy="46" cx="485.72"/>
  <line id="svg_29" stroke-width="2" stroke-miterlimit="10" stroke="#6c63ff" y2="20" x2="485.72" y1="42" x1="485.72"/>
  <line id="svg_30" stroke-width="2" stroke-miterlimit="10" stroke="#6c63ff" y2="50.13" x2="485.72" y1="79" x1="485.72"/>
  <circle id="svg_31" fill="#6c63ff" r="4" cy="79" cx="485.72"/>
  <circle id="svg_32" stroke-miterlimit="10" stroke="#fff" fill="none" r="4" cy="46" cx="485.72"/>
  <line id="svg_33" stroke-width="2" stroke-miterlimit="10" stroke="#6c63ff" y2="310" x2="485.72" y1="279" x1="485.72"/>
  <line id="svg_34" stroke-width="2" stroke-miterlimit="10" stroke="#6c63ff" y2="279.87" x2="485.72" y1="251" x1="485.72"/>
  <circle id="svg_35" fill="#6c63ff" r="4" cy="251" cx="485.72"/>
  <line id="svg_36" stroke-width="2" stroke-miterlimit="10" stroke="#6c63ff" y2="168.5" x2="274.22" y1="168.5" x1="305.72"/>
  <line id="svg_37" stroke-width="2" stroke-miterlimit="10" stroke="#6c63ff" y2="168.5" x2="304.35" y1="168.5" x1="333.22"/>
  <circle id="svg_38" fill="#6c63ff" r="4" cy="168.5" cx="333.22"/>
  <g id="svg_39" opacity="0.1">
   <rect id="svg_40" height="3" width="156" y="435.5" x="408.22"/>
  </g>
  <g id="svg_41" opacity="0.7">
   <path id="svg_42" fill="url(#fe76f7c7-2126-4e48-920d-21143a22d340)" d="m179.2,367.06l-72.4,0l1,-8.14c20.46,-18.37 33.69,-67.31 33.69,-67.31a6.78,6.78 0 0 0 -0.87,0.18c-12,2.42 -20.54,7.35 -26.51,13.28l2.54,-21.66c37.8,-8.14 52.79,-58.14 52.79,-58.14c-24.12,5.35 -39.16,13.63 -48.5,21.49l3.72,-31.82c25.56,8.77 52,-37.82 52,-37.82l-1,-0.21l0.5,-0.32l-0.76,0.27c-28.25,-6.09 -43.35,10.06 -48.25,16.77l0.37,-3.12q-1.12,3 -2.18,5.88l0,0l0,0.08q-3,8.13 -5.49,16.06l0,0l0,0q-2.17,6.77 -4.06,13.4l0,-0.06s-1.17,-28.46 -31.18,-35.95c0,0 3.15,62.07 26.93,51.91l0,0c-2.2,9 -4,17.66 -5.56,26.07l0,0q-1.49,8.21 -2.6,16l-0.14,0.16l0.14,-0.12l-0.06,0.41l0,0l0,0q-1,7.07 -1.7,13.78c0.46,-8.62 -1.11,-33.52 -30.45,-56.92c0,0 -39,68.54 27.5,82c0.15,0.13 0.3,0.26 0.44,0.38l-0.1,-0.31l0.6,0.13l0.27,-3.52a369.39,369.39 0 0 0 0.23,44.1l0,0c0.07,1 0.14,2 0.21,2.95l-73.23,0c-27.94,57.79 15.52,89.46 15.52,89.46l120,0c46.6,-58.74 16.59,-89.34 16.59,-89.34zm-78,-65.68l0,0l0,0z"/>
  </g>
  <path id="svg_43" opacity="0.6" stroke-width="3" stroke-miterlimit="10" stroke="#535461" fill="none" d="m102.72,389s-19,-83 23,-190"/>
  <path id="svg_44" fill="#6c63ff" d="m28.72,364l147,0s29,37 -16,92l-116,0s-42,-38 -15,-92z"/>
  <path id="svg_45" fill="#4db6ac" d="m123.61,204.5s14.61,-26 49.61,-18c0,0 -28.93,49.26 -55,33.13l5.39,-15.13z"/>
  <path id="svg_46" fill="#4db6ac" d="m114.35,232.09s-1.13,-26.59 -30.13,-33.59c0,0 3,58 26,48.5l4.13,-14.91z"/>
  <path id="svg_47" fill="#4db6ac" d="m104.87,271.36s5.35,-27.86 61.35,-39.86c0,0 -17.86,57.62 -63.93,55.31l2.58,-15.45z"/>
  <path id="svg_48" fill="#4db6ac" d="m100.33,302.63s5.89,-29.13 -29.11,-56.13c0,0 -38,64.67 27.48,76.83l1.63,-20.7z"/>
  <path id="svg_49" fill="#4db6ac" d="m99.28,342.67s-4.06,-41.17 39.94,-49.17c0,0 -16.07,57.49 -40,67.74l0.06,-18.57z"/>
  <path id="svg_50" opacity="0.3" stroke-miterlimit="10" stroke="#535461" fill="none" d="m118.72,220s38,-29 54,-34"/>
  <path id="svg_51" opacity="0.3" stroke-miterlimit="10" stroke="#535461" fill="none" d="m102.22,286.5s46,-49 64,-55"/>
  <path id="svg_52" opacity="0.3" stroke-miterlimit="10" stroke="#535461" fill="none" d="m84.22,198.5s28,38 26,48"/>
  <path id="svg_53" opacity="0.3" stroke-miterlimit="10" stroke="#535461" fill="none" d="m71.22,246.5s15,68 27,77"/>
  <path id="svg_54" opacity="0.3" stroke-miterlimit="10" stroke="#535461" fill="none" d="m99.22,361.5s24,-66 40,-68"/>
  <g id="svg_55" opacity="0.1">
   <path id="svg_56" d="m175.72,364l-147,0c-0.33,0.67 -0.65,1.34 -1,2l143,0s28.29,36.11 -14.4,90l3.4,0c45,-55 16,-92 16,-92z"/>
  </g>
  <rect id="svg_57" fill="#7510f7" height="32.93" width="971.44" y="455.6"/>
  <rect id="svg_59" opacity="0.1" height="4.49" width="889.11" y="488.53" x="41.16"/>
  <line id="svg_60" stroke-width="2" stroke-miterlimit="10" stroke="#6c63ff" y2="168.5" x2="696.22" y1="168.5" x1="690.22"/>
  <line id="svg_61" stroke-width="2" stroke-miterlimit="10" stroke="#6c63ff" y2="168.5" x2="682.1" y1="168.5" x1="637.22"/>
  <circle id="svg_62" fill="#6c63ff" r="4" cy="168.5" cx="637.22"/>
  <circle id="svg_63" stroke-miterlimit="10" stroke="#fff" fill="none" r="4" cy="168.5" cx="686.22"/>
  <g id="svg_64" opacity="0.7">
   <path id="svg_65" fill="url(#2cf89a04-5a05-413b-983a-d2bc296cbb5e)" d="m912.72,444.88l0.1,-0.15q0.31,-0.48 0.61,-1l0.11,-0.19q0.29,-0.49 0.55,-1l0.09,-0.17c0.2,-0.39 0.39,-0.78 0.56,-1.19l0,0a23.79,23.79 0 0 0 0.94,-2.51l0.1,-0.33c0.09,-0.31 0.18,-0.62 0.26,-0.93l0.1,-0.44q0.1,-0.42 0.18,-0.85c0,-0.16 0.06,-0.32 0.09,-0.48s0.09,-0.56 0.13,-0.85s0,-0.33 0.06,-0.49s0.06,-0.61 0.08,-0.92c0,-0.14 0,-0.29 0,-0.43c0,-0.45 0,-0.91 0,-1.36l0,-82.59l-13.85,0l0,-40.48l-17,0l0,40.48l-11.72,0l0,-58.14l-17,0l0,58.14l-6.39,0l0,-66.45l-17,0l0,66.45l-15,0l0,82.6c0,13.48 11.21,24.4 25,24.4l48,0a25.19,25.19 0 0 0 20.24,-10.06l0,0q0.37,-0.53 0.76,-1.06z"/>
  </g>
  <rect id="svg_66" fill="#535461" height="100" width="16" y="321" x="835.72"/>
  <rect id="svg_67" fill="#3ad29f" height="33" width="16" y="288" x="835.72"/>
  <rect id="svg_68" fill="#535461" height="100" width="16" y="329" x="857.72"/>
  <rect id="svg_69" fill="#4d8af0" height="33" width="16" y="296" x="857.72"/>
  <rect id="svg_70" fill="#535461" height="100" width="16" y="346" x="884.72"/>
  <rect id="svg_71" fill="#f55f44" height="33" width="16" y="313" x="884.72"/>
  <path id="svg_72" fill="#6c63ff" d="m821.72,352l92,0a0,0 0 0 1 0,0l0,79.5a23.5,23.5 0 0 1 -23.5,23.5l-45,0a23.5,23.5 0 0 1 -23.5,-23.5l0,-79.5a0,0 0 0 1 0,0z"/>
  <g id="svg_73" opacity="0.1">
   <path id="svg_74" d="m821.72,352l0,4l88,0l0,79.5a23.39,23.39 0 0 1 -5,14.49a23.45,23.45 0 0 0 9,-18.49l0,-79.5l-92,0z"/>
  </g>
 </g>
</svg>