<svg width="1282" height="962" xmlns="http://www.w3.org/2000/svg">
 <!-- Created with Method Draw - http://github.com/duopixel/Method-Draw/ -->

 <g>
  <title>background</title>
  <rect fill="none" id="canvas_background" height="964" width="1284" y="-1" x="-1"/>
  <g display="none" overflow="visible" y="0" x="0" height="100%" width="100%" id="canvasGrid">
   <rect fill="url(#gridpattern)" stroke-width="0" y="2" x="2" height="600" width="800"/>
  </g>
 </g>
 <g>
  <title>Layer 1</title>
  <!-- Created with Method Draw - http://github.com/duopixel/Method-Draw/ -->
  <g stroke="null" id="svg_29">
   <g stroke="null" transform="matrix(1.5954513488468016,0,0,1.6020699364543636,-9246.766852076547,-6877.331519314147) " id="svg_26">
    <title stroke="null" transform="translate(-206.10597229003906,-207.73123168945312) translate(1.6024879217147827,1.7903504371643066) translate(1.6024879217147827,1.7903504371643066) translate(6000,0) translate(0,4500) ">background</title>
    <rect stroke="null" x="5796.78866" y="4294.15981" width="802" height="602" id="svg_24" fill="#fff"/>
    <g stroke="null" id="svg_23" display="none">
     <rect stroke="null" id="svg_27" width="800" height="600" x="5797.099" y="4295.84947" stroke-width="0" fill="url(#gridpattern)"/>
    </g>
   </g>
   <g stroke="null" transform="matrix(13.393014765059315,0,0,11.403962292019411,-83286.25193368635,-52819.925480526246) " id="svg_28">
    <title stroke="null" transform="translate(-24.55250358581543,-29.18283462524414) translate(-75.79601287841797,-48.368316650390625) translate(-36.170413970947266,-52.60259246826172) translate(0,9.094947017729282e-13) translate(1.6024879217147827,1.7903504371643066) translate(1.6024879217147827,1.7903504371643066) translate(6000,0) translate(0,4500) ">Layer 1</title>
    <g stroke="null" id="svg_14">
     <path stroke="null" d="m6256.73792,4692.35938c-0.35635,0 -0.7153,-0.12255 -1.0082,-0.37199l-10.07851,-8.58186c-0.34765,-0.29638 -0.54756,-0.72921 -0.54756,-1.18637c0,-0.4563 0.20077,-0.88913 0.54756,-1.1855l10.07851,-8.58186c0.65446,-0.55799 1.63746,-0.4789 2.19544,0.17557c0.55712,0.65533 0.47889,1.63832 -0.17644,2.19544l-8.68529,7.39636l8.68529,7.39636c0.65533,0.55799 0.73355,1.54098 0.17644,2.19544c-0.30854,0.36243 -0.74659,0.54842 -1.18724,0.54842l0,-0.00001zm0,0" id="svg_22" fill="#7510f7"/>
     <path stroke="null" d="m6276.6342,4692.35938c-0.44065,0 -0.8787,-0.18599 -1.18637,-0.54842c-0.55799,-0.65446 -0.4789,-1.63746 0.17557,-2.19544l8.68529,-7.39636l-8.68529,-7.39636c-0.65446,-0.55712 -0.73355,-1.54011 -0.17557,-2.19544c0.55712,-0.65446 1.54098,-0.73355 2.19457,-0.17557l10.07851,8.58186c0.34765,0.29638 0.54756,0.72921 0.54756,1.1855c0,0.45717 -0.1999,0.89 -0.54756,1.18637l-10.07851,8.58186c-0.2929,0.24944 -0.65185,0.37199 -1.0082,0.37199l0,0.00001zm0,0" id="svg_21" fill="#7510f7"/>
     <path stroke="null" d="m6263.11825,4698.79621c-0.1069,0 -0.21468,-0.0113 -0.32332,-0.0339c-0.84132,-0.17731 -1.38019,-1.00385 -1.20289,-1.84518l6.28125,-29.8227c0.1773,-0.84132 1.00298,-1.38019 1.84518,-1.20289c0.84132,0.17731 1.38019,1.00298 1.20289,1.84518l-6.28125,29.8227c-0.15471,0.73355 -0.80134,1.23678 -1.52186,1.23678l0,0.00001zm0,0" id="svg_20" fill="#7510f7"/>
     <path stroke="null" d="m6303.39841,4715.73352l-73.4247,0c-5.76586,0 -10.45746,-4.69073 -10.45746,-10.45746l0,-62.31887c0,-5.76586 4.6916,-10.45746 10.45746,-10.45746l73.4247,0c5.76586,0 10.45746,4.6916 10.45746,10.45746l0,62.31887c0,5.76673 -4.6916,10.45746 -10.45746,10.45746zm-73.4247,-80.1188c-4.04844,0 -7.34247,3.29403 -7.34247,7.34247l0,62.31887c0,4.04844 3.29403,7.34247 7.34247,7.34247l73.4247,0c4.04844,0 7.34247,-3.29403 7.34247,-7.34247l0,-62.31887c0,-4.04844 -3.29403,-7.34247 -7.34247,-7.34247l-73.4247,0zm0,0" id="svg_19" fill="#7510f7"/>
     <path stroke="null" d="m6312.29838,4656.74996l-91.22463,0c-0.86045,0 -1.55749,-0.69705 -1.55749,-1.55749c0,-0.85958 0.69705,-1.55749 1.55749,-1.55749l91.22463,0c0.86045,0 1.55749,0.69792 1.55749,1.55749c0,0.86045 -0.69705,1.55749 -1.55749,1.55749zm0,0" id="svg_18" fill="#7510f7"/>
     <path stroke="null" d="m6246.12749,4649.29711c-2.71692,0 -4.92888,-2.21195 -4.92888,-4.92888c0,-2.71779 2.21195,-4.92888 4.92888,-4.92888c2.71779,0 4.92888,2.21108 4.92888,4.92888c0,2.71692 -2.21108,4.92888 -4.92888,4.92888zm0,-6.74277c-0.99951,0 -1.81389,0.81351 -1.81389,1.81389s0.81438,1.81389 1.81389,1.81389c1.00038,0 1.81389,-0.81351 1.81389,-1.81389s-0.81351,-1.81389 -1.81389,-1.81389zm0,0" id="svg_17" fill="#7510f7"/>
     <path stroke="null" d="m6230.98364,4649.24931c-2.71779,0 -4.92888,-2.21108 -4.92888,-4.92888c0,-2.71779 2.21108,-4.92888 4.92888,-4.92888c2.71779,0 4.92888,2.21108 4.92888,4.92888c0,2.71779 -2.21108,4.92888 -4.92888,4.92888zm0,-6.74277c-0.99951,0 -1.81389,0.81438 -1.81389,1.81389c0,1.00038 0.81438,1.81389 1.81389,1.81389c1.00038,0 1.81389,-0.81351 1.81389,-1.81389c0,-0.99951 -0.81351,-1.81389 -1.81389,-1.81389zm0,0" id="svg_16" fill="#7510f7"/>
     <path stroke="null" d="m6261.27134,4649.34405c-2.71692,0 -4.92801,-2.21108 -4.92801,-4.92888c0,-2.71692 2.21108,-4.92801 4.92801,-4.92801c2.71779,0 4.92888,2.21108 4.92888,4.92801c0,2.71779 -2.21108,4.92888 -4.92888,4.92888zm0,-6.74277c-0.99951,0 -1.81302,0.81351 -1.81302,1.81389s0.81351,1.81389 1.81302,1.81389c1.00038,0 1.81389,-0.81351 1.81389,-1.81389s-0.81351,-1.81389 -1.81389,-1.81389zm0,0" id="svg_15" fill="#7510f7"/>
    </g>
   </g>
  </g>
 </g>
</svg>