<svg width="800" height="600" xmlns="http://www.w3.org/2000/svg">
 <!-- Created with Method Draw - http://github.com/duopixel/Method-Draw/ -->

 <g>
  <title>background</title>
  <rect fill="#fff" id="canvas_background" height="602" width="802" y="-1" x="-1"/>
  <g display="none" overflow="visible" y="0" x="0" height="100%" width="100%" id="canvasGrid">
   <rect fill="url(#gridpattern)" stroke-width="0" y="0" x="0" height="100%" width="100%"/>
  </g>
 </g>
 <g>
  <title>Layer 1</title>
  <g stroke="null" id="svg_15">
   <g stroke="null" transform="matrix(13.28805499134442,0,0,9.8486712235021,-145.63249014167968,-0.05116410020882519) " id="svg_4">
    <path fill="#7510f7" stroke="null" id="svg_6" d="m41.06188,19.71999a11,11 0 1 0 11,11a11.007,11.007 0 0 0 -11,-11zm-6.72,16.97a9,9 0 0 1 -2.22,-4.97l2.64,0a17.551,17.551 0 0 0 0.7,4.21a10.5,10.5 0 0 0 -1.12,0.76zm0.42,-6.97l-2.64,0a9,9 0 0 1 2.22,-4.97a10.5,10.5 0 0 0 1.12,0.76a17.551,17.551 0 0 0 -0.7,4.21zm1.1,8.33c0.11,-0.07 0.22,-0.15 0.33,-0.23c0.11,0.23 0.23,0.46 0.35,0.67c-0.23,-0.14 -0.46,-0.28 -0.68,-0.44zm0.33,-14.43c-0.11,-0.08 -0.22,-0.16 -0.33,-0.23c0.22,-0.16 0.45,-0.3 0.68,-0.44c-0.12,0.21 -0.24,0.44 -0.35,0.67zm3.87,15.81a5.588,5.588 0 0 1 -2.07,-2.5a9.158,9.158 0 0 1 2.07,-0.48l0,2.98zm0,-5a11.367,11.367 0 0 0 -2.77,0.63a15.676,15.676 0 0 1 -0.53,-3.34l3.3,0l0,2.71zm0,-4.71l-3.3,0a15.676,15.676 0 0 1 0.53,-3.34a11.367,11.367 0 0 0 2.77,0.63l0,2.71zm0,-4.73a9.158,9.158 0 0 1 -2.07,-0.48a5.588,5.588 0 0 1 2.07,-2.5l0,2.98zm7.72,-0.24a9,9 0 0 1 2.22,4.97l-2.64,0a17.551,17.551 0 0 0 -0.7,-4.21a10.5,10.5 0 0 0 1.12,-0.76zm-5.72,-2.74a5.588,5.588 0 0 1 2.07,2.5a9.158,9.158 0 0 1 -2.07,0.48l0,-2.98zm0,17.42l0,-2.98a9.158,9.158 0 0 1 2.07,0.48a5.588,5.588 0 0 1 -2.07,2.5zm2.77,-4.37a11.367,11.367 0 0 0 -2.77,-0.63l0,-2.71l3.3,0a15.676,15.676 0 0 1 -0.53,3.34zm-2.77,-5.34l0,-2.71a11.367,11.367 0 0 0 2.77,-0.63a15.676,15.676 0 0 1 0.53,3.34l-3.3,0zm3.52,8.77c0.12,-0.21 0.24,-0.44 0.35,-0.67c0.11,0.08 0.22,0.16 0.33,0.23c-0.22,0.16 -0.45,0.3 -0.68,0.44zm0.35,-14.87c-0.11,-0.23 -0.23,-0.46 -0.35,-0.67c0.23,0.14 0.46,0.28 0.68,0.44c-0.11,0.07 -0.22,0.15 -0.33,0.23zm1.85,13.07a10.5,10.5 0 0 0 -1.12,-0.76a17.551,17.551 0 0 0 0.7,-4.21l2.64,0a9,9 0 0 1 -2.22,4.97z"/>
    <path fill="#7510f7" stroke="null" id="svg_7" d="m68.06188,39.71999l-14,0a3.009,3.009 0 0 0 -3,3l0,10a3.009,3.009 0 0 0 3,3l3.85,0l-0.74,3.81a0.993,0.993 0 0 0 0.2,0.83a1.013,1.013 0 0 0 0.78,0.36l5.82,0a1.013,1.013 0 0 0 0.78,-0.36a0.993,0.993 0 0 0 0.2,-0.83l-0.74,-3.81l3.85,0a3.009,3.009 0 0 0 3,-3l0,-10a3.009,3.009 0 0 0 -3,-3zm-8.7,19l0.59,-3l2.22,0l0.59,3l-3.4,0zm9.7,-6a1,1 0 0 1 -1,1l-14,0a1,1 0 0 1 -1,-1l0,-1l16,0l0,1zm0,-3l-16,0l0,-7a1,1 0 0 1 1,-1l14,0a1,1 0 0 1 1,1l0,7z"/>
    <path fill="#7510f7" stroke="null" id="svg_8" d="m28.06188,0.71999l-14,0a3.009,3.009 0 0 0 -3,3l0,10a3.009,3.009 0 0 0 3,3l3.85,0l-0.74,3.81a0.993,0.993 0 0 0 0.2,0.83a1.013,1.013 0 0 0 0.78,0.36l5.82,0a1.013,1.013 0 0 0 0.78,-0.36a0.993,0.993 0 0 0 0.2,-0.83l-0.74,-3.81l3.85,0a3.009,3.009 0 0 0 3,-3l0,-10a3.009,3.009 0 0 0 -3,-3zm-8.7,19l0.59,-3l2.22,0l0.59,3l-3.4,0zm9.7,-6a1,1 0 0 1 -1,1l-14,0a1,1 0 0 1 -1,-1l0,-1l16,0l0,1zm0,-3l-16,0l0,-7a1,1 0 0 1 1,-1l14,0a1,1 0 0 1 1,1l0,7z"/>
    <path fill="#7510f7" stroke="null" id="svg_9" d="m28.06188,27.71999l-5,0a1,1 0 0 1 -1,-1l0,-3l-2,0l0,3a3,3 0 0 0 3,3l5,0l0,-2z"/>
    <path fill="#7510f7" stroke="null" id="svg_10" d="m20.06188,34.71999l0,6l2,0l0,-6a1,1 0 0 1 1,-1l5,0l0,-2l-5,0a3,3 0 0 0 -3,3z"/>
    <path fill="#7510f7" stroke="null" id="svg_11" d="m62.06188,20.71999l-2,0l0,6a1,1 0 0 1 -1,1l-6,0l0,2l6,0a3,3 0 0 0 3,-3l0,-6z"/>
    <path fill="#7510f7" stroke="null" id="svg_12" d="m62.06188,37.71999l0,-3a3,3 0 0 0 -3,-3l-6,0l0,2l6,0a1,1 0 0 1 1,1l0,3l2,0z"/>
    <path fill="#7510f7" stroke="null" id="svg_13" d="m70.85188,13.09999a1,1 0 0 0 -0.79,-0.38l-1,0l0,-11a1,1 0 0 0 -1,-1l-20,0a1,1 0 0 0 -1,1l0,11l-1,0a1,1 0 0 0 -0.79,0.38a1.022,1.022 0 0 0 -0.18,0.86l1,4a1,1 0 0 0 0.97,0.76l22,0a1,1 0 0 0 0.97,-0.76l1,-4a1.022,1.022 0 0 0 -0.18,-0.86zm-21.79,-10.38l18,0l0,10l-7,0a1,1 0 0 0 -1,1l-2,0a1,1 0 0 0 -1,-1l-7,0l0,-10zm19.22,14l-20.44,0l-0.5,-2l7.72,0a1,1 0 0 0 1,1l4,0a1,1 0 0 0 1,-1l7.72,0l-0.5,2z"/>
    <path fill="#7510f7" stroke="null" id="svg_14" d="m36.85188,55.09999a1,1 0 0 0 -0.79,-0.38l-1,0l0,-11a1,1 0 0 0 -1,-1l-20,0a1,1 0 0 0 -1,1l0,11l-1,0a1,1 0 0 0 -0.79,0.38a1.022,1.022 0 0 0 -0.18,0.86l1,4a1,1 0 0 0 0.97,0.76l22,0a1,1 0 0 0 0.97,-0.76l1,-4a1.022,1.022 0 0 0 -0.18,-0.86zm-21.79,-10.38l18,0l0,10l-7,0a1,1 0 0 0 -1,1l-2,0a1,1 0 0 0 -1,-1l-7,0l0,-10zm19.22,14l-20.44,0l-0.5,-2l7.72,0a1,1 0 0 0 1,1l4,0a1,1 0 0 0 1,-1l7.72,0l-0.5,2z"/>
   </g>
  </g>
 </g>
</svg>